<svg id="visual" viewBox="0 0 900 600" width="900" height="600" xmlns="http://www.w3.org/2000/svg" xmlns:xlink="http://www.w3.org/1999/xlink" version="1.1"><g stroke-width="1" stroke-linejoin="bevel"><path d="M485 326L502 228L394 285Z" fill="#4e6058" stroke="#4e6058"></path><path d="M502 228L366 192L394 285Z" fill="#616f6a" stroke="#616f6a"></path><path d="M366 192L321 300L394 285Z" fill="#3c5146" stroke="#3c5146"></path><path d="M394 285L395 405L485 326Z" fill="#4e6058" stroke="#4e6058"></path><path d="M321 300L395 405L394 285Z" fill="#31473a" stroke="#31473a"></path><path d="M603 427L592 326L485 326Z" fill="#5a6a64" stroke="#5a6a64"></path><path d="M485 326L592 326L502 228Z" fill="#485b52" stroke="#485b52"></path><path d="M395 405L467 426L485 326Z" fill="#54655e" stroke="#54655e"></path><path d="M592 326L599 174L502 228Z" fill="#4e6058" stroke="#4e6058"></path><path d="M502 228L367 117L366 192Z" fill="#4e6058" stroke="#4e6058"></path><path d="M366 192L285 230L321 300Z" fill="#31473a" stroke="#31473a"></path><path d="M528 73L367 117L502 228Z" fill="#6e7976" stroke="#6e7976"></path><path d="M366 192L273 123L285 230Z" fill="#31473a" stroke="#31473a"></path><path d="M599 174L528 73L502 228Z" fill="#3c5146" stroke="#3c5146"></path><path d="M321 300L318 433L395 405Z" fill="#374c40" stroke="#374c40"></path><path d="M395 405L407 491L467 426Z" fill="#4e6058" stroke="#4e6058"></path><path d="M209 379L318 433L321 300Z" fill="#6e7976" stroke="#6e7976"></path><path d="M467 426L603 427L485 326Z" fill="#616f6a" stroke="#616f6a"></path><path d="M592 326L679 273L599 174Z" fill="#374c40" stroke="#374c40"></path><path d="M527 509L603 427L467 426Z" fill="#677470" stroke="#677470"></path><path d="M695 375L679 273L592 326Z" fill="#616f6a" stroke="#616f6a"></path><path d="M599 174L605 93L528 73Z" fill="#6e7976" stroke="#6e7976"></path><path d="M318 433L407 491L395 405Z" fill="#485b52" stroke="#485b52"></path><path d="M679 183L605 93L599 174Z" fill="#54655e" stroke="#54655e"></path><path d="M282 0L273 123L367 117Z" fill="#374c40" stroke="#374c40"></path><path d="M367 117L273 123L366 192Z" fill="#677470" stroke="#677470"></path><path d="M679 273L679 183L599 174Z" fill="#616f6a" stroke="#616f6a"></path><path d="M407 491L527 509L467 426Z" fill="#374c40" stroke="#374c40"></path><path d="M273 123L205 212L285 230Z" fill="#31473a" stroke="#31473a"></path><path d="M186 331L209 379L321 300Z" fill="#677470" stroke="#677470"></path><path d="M716 479L695 375L603 427Z" fill="#31473a" stroke="#31473a"></path><path d="M603 427L695 375L592 326Z" fill="#54655e" stroke="#54655e"></path><path d="M679 273L775 202L679 183Z" fill="#3c5146" stroke="#3c5146"></path><path d="M318 433L326 502L407 491Z" fill="#6e7976" stroke="#6e7976"></path><path d="M407 491L503 600L527 509Z" fill="#677470" stroke="#677470"></path><path d="M183 487L326 502L318 433Z" fill="#5a6a64" stroke="#5a6a64"></path><path d="M186 331L321 300L285 230Z" fill="#677470" stroke="#677470"></path><path d="M273 123L218 132L205 212Z" fill="#5a6a64" stroke="#5a6a64"></path><path d="M231 0L218 132L273 123Z" fill="#6e7976" stroke="#6e7976"></path><path d="M205 212L186 331L285 230Z" fill="#42564c" stroke="#42564c"></path><path d="M532 0L393 0L528 73Z" fill="#4e6058" stroke="#4e6058"></path><path d="M528 73L393 0L367 117Z" fill="#42564c" stroke="#42564c"></path><path d="M617 0L528 73L605 93Z" fill="#6e7976" stroke="#6e7976"></path><path d="M617 0L532 0L528 73Z" fill="#42564c" stroke="#42564c"></path><path d="M527 509L633 495L603 427Z" fill="#677470" stroke="#677470"></path><path d="M807 370L770 272L695 375Z" fill="#5a6a64" stroke="#5a6a64"></path><path d="M695 375L770 272L679 273Z" fill="#42564c" stroke="#42564c"></path><path d="M674 0L617 0L605 93Z" fill="#677470" stroke="#677470"></path><path d="M707 75L605 93L679 183Z" fill="#677470" stroke="#677470"></path><path d="M775 202L707 75L679 183Z" fill="#42564c" stroke="#42564c"></path><path d="M393 0L282 0L367 117Z" fill="#31473a" stroke="#31473a"></path><path d="M770 272L775 202L679 273Z" fill="#485b52" stroke="#485b52"></path><path d="M205 212L128 326L186 331Z" fill="#5a6a64" stroke="#5a6a64"></path><path d="M186 331L127 423L209 379Z" fill="#42564c" stroke="#42564c"></path><path d="M209 379L183 487L318 433Z" fill="#31473a" stroke="#31473a"></path><path d="M88 191L128 326L205 212Z" fill="#42564c" stroke="#42564c"></path><path d="M391 600L503 600L407 491Z" fill="#374c40" stroke="#374c40"></path><path d="M527 509L625 600L633 495Z" fill="#54655e" stroke="#54655e"></path><path d="M684 600L716 479L633 495Z" fill="#677470" stroke="#677470"></path><path d="M633 495L716 479L603 427Z" fill="#5a6a64" stroke="#5a6a64"></path><path d="M299 600L391 600L326 502Z" fill="#677470" stroke="#677470"></path><path d="M326 502L391 600L407 491Z" fill="#3c5146" stroke="#3c5146"></path><path d="M792 0L674 0L707 75Z" fill="#54655e" stroke="#54655e"></path><path d="M707 75L674 0L605 93Z" fill="#677470" stroke="#677470"></path><path d="M127 423L183 487L209 379Z" fill="#485b52" stroke="#485b52"></path><path d="M282 0L231 0L273 123Z" fill="#54655e" stroke="#54655e"></path><path d="M218 132L88 191L205 212Z" fill="#6e7976" stroke="#6e7976"></path><path d="M128 326L127 423L186 331Z" fill="#677470" stroke="#677470"></path><path d="M213 600L299 600L326 502Z" fill="#485b52" stroke="#485b52"></path><path d="M770 272L900 218L775 202Z" fill="#4e6058" stroke="#4e6058"></path><path d="M797 467L807 370L695 375Z" fill="#54655e" stroke="#54655e"></path><path d="M503 600L625 600L527 509Z" fill="#6e7976" stroke="#6e7976"></path><path d="M716 479L797 467L695 375Z" fill="#485b52" stroke="#485b52"></path><path d="M69 105L88 191L218 132Z" fill="#485b52" stroke="#485b52"></path><path d="M128 326L0 425L127 423Z" fill="#677470" stroke="#677470"></path><path d="M831 600L797 467L716 479Z" fill="#42564c" stroke="#42564c"></path><path d="M625 600L684 600L633 495Z" fill="#374c40" stroke="#374c40"></path><path d="M775 202L814 81L707 75Z" fill="#374c40" stroke="#374c40"></path><path d="M900 104L814 81L775 202Z" fill="#3c5146" stroke="#3c5146"></path><path d="M183 487L213 600L326 502Z" fill="#4e6058" stroke="#4e6058"></path><path d="M122 515L213 600L183 487Z" fill="#374c40" stroke="#374c40"></path><path d="M0 493L122 515L127 423Z" fill="#4e6058" stroke="#4e6058"></path><path d="M127 423L122 515L183 487Z" fill="#3c5146" stroke="#3c5146"></path><path d="M231 0L69 105L218 132Z" fill="#4e6058" stroke="#4e6058"></path><path d="M88 191L0 276L128 326Z" fill="#5a6a64" stroke="#5a6a64"></path><path d="M814 81L792 0L707 75Z" fill="#616f6a" stroke="#616f6a"></path><path d="M900 332L770 272L807 370Z" fill="#4e6058" stroke="#4e6058"></path><path d="M900 332L900 218L770 272Z" fill="#374c40" stroke="#374c40"></path><path d="M814 81L900 0L792 0Z" fill="#4e6058" stroke="#4e6058"></path><path d="M900 422L900 332L807 370Z" fill="#42564c" stroke="#42564c"></path><path d="M0 204L0 276L88 191Z" fill="#31473a" stroke="#31473a"></path><path d="M0 113L0 204L88 191Z" fill="#42564c" stroke="#42564c"></path><path d="M231 0L72 0L69 105Z" fill="#42564c" stroke="#42564c"></path><path d="M69 105L0 113L88 191Z" fill="#5a6a64" stroke="#5a6a64"></path><path d="M900 531L900 422L797 467Z" fill="#677470" stroke="#677470"></path><path d="M797 467L900 422L807 370Z" fill="#5a6a64" stroke="#5a6a64"></path><path d="M900 218L900 104L775 202Z" fill="#3c5146" stroke="#3c5146"></path><path d="M0 276L0 425L128 326Z" fill="#54655e" stroke="#54655e"></path><path d="M122 515L99 600L213 600Z" fill="#54655e" stroke="#54655e"></path><path d="M0 0L0 113L69 105Z" fill="#4e6058" stroke="#4e6058"></path><path d="M0 493L99 600L122 515Z" fill="#42564c" stroke="#42564c"></path><path d="M684 600L831 600L716 479Z" fill="#485b52" stroke="#485b52"></path><path d="M0 425L0 493L127 423Z" fill="#3c5146" stroke="#3c5146"></path><path d="M831 600L900 531L797 467Z" fill="#4e6058" stroke="#4e6058"></path><path d="M900 104L900 0L814 81Z" fill="#616f6a" stroke="#616f6a"></path><path d="M72 0L0 0L69 105Z" fill="#616f6a" stroke="#616f6a"></path><path d="M831 600L900 600L900 531Z" fill="#54655e" stroke="#54655e"></path><path d="M0 493L0 600L99 600Z" fill="#54655e" stroke="#54655e"></path></g></svg>